<svg width="60" height="60" viewBox="0 0 60 60" fill="none" xmlns="http://www.w3.org/2000/svg">
<path d="M51.0655 30.4999L30.0077 10.7877L8.93701 30.5081V58.6868C8.93701 59.4146 9.49339 59.9984 10.1819 59.9984H23.3503V47.6432C23.3503 46.9155 23.9026 46.3274 24.5912 46.3274H35.4114C36.0999 46.3274 36.6522 46.9155 36.6522 47.6432V59.9984H49.8245C50.513 59.9984 50.6773 60.0982 51.0653 58.6868V30.4986L51.0655 30.4999Z" fill="white"/>
<path d="M29.8835 0L0 27.9681L3.14792 31.7218L30.0062 6.58355L56.8581 31.7218L60 27.9681L30.1216 0L30.0055 0.142137L29.8832 0H29.8835Z" fill="white"/>
</svg>
