<svg width="1052" height="800" viewBox="0 0 1052 800" fill="none" xmlns="http://www.w3.org/2000/svg">
<path d="M-147.021 0C-147.28 0 -147.529 0.101516 -147.713 0.282211C-147.897 0.46291 -148 0.707989 -148 0.963534L-147.999 799.036C-147.999 799.568 -147.561 799.999 -147.02 799.999L1051.02 800C1051.28 800 1051.53 799.898 1051.71 799.718C1051.9 799.537 1052 799.292 1052 799.036L1052 0.964148C1052 0.432002 1051.56 0.000613564 1051.02 0.000613564L-147.021 0Z" fill="#1169A9"/>
<path d="M926 743.545L921.888 744.163C902.401 745.408 845.381 746.404 750.828 747.15C655.622 747.896 543.509 748.198 414.491 748.057C291.359 747.86 192.882 747.284 119.058 746.328C45.2936 745.365 15.3824 744.232 29.3244 742.927C48.8115 741.683 105.832 740.687 200.384 739.941C295.591 739.195 407.704 738.893 536.722 739.034C659.853 739.231 758.331 739.807 832.155 740.763C855.809 741.072 875.292 741.409 890.606 741.773L909.912 742.335C920.518 742.722 925.881 743.125 926 743.545Z" fill="black" fill-opacity="0.298039"/>
<path d="M148.217 704.739H387.35L626.481 704.74C626.481 706.574 626.481 708.408 626.481 710.242C467.06 710.242 307.639 710.242 148.217 710.242C148.217 708.408 148.217 706.574 148.217 704.739Z" fill="white" fill-opacity="0.996078"/>
<path d="M149.731 709.35H388.863L627.995 709.35V714.851L149.731 714.853V709.35Z" fill="#D9E2E7"/>
<path d="M148.795 714.419L387.927 714.421L627.059 714.42V719.922L148.795 719.924V714.419Z" fill="white" fill-opacity="0.996078"/>
<path d="M148.795 717.646L387.927 717.648L627.059 717.648V723.149L148.795 723.151V717.646Z" fill="#D9E2E7"/>
<path d="M148.795 722.718L387.927 722.719L627.059 722.719V728.221L148.795 728.222V722.718Z" fill="white" fill-opacity="0.996078"/>
<path d="M150.307 727.789L389.439 727.79L628.571 727.79L628.571 733.291L150.307 733.294V727.789Z" fill="#D9E2E7"/>
<path d="M149.839 731.938H388.971L628.104 731.939V737.441L149.839 737.444V731.938Z" fill="white" fill-opacity="0.996078"/>
<path d="M148.53 736.182L387.663 736.183L626.795 736.183V741.684L148.53 741.686V736.182Z" fill="#D9E2E7"/>
<path d="M130.402 667.644H369.534L608.666 667.645C608.666 669.479 608.666 671.313 608.666 673.147C449.245 673.147 289.824 673.147 130.402 673.147C130.402 671.313 130.402 669.479 130.402 667.644Z" fill="white" fill-opacity="0.996078"/>
<path d="M131.916 672.255H371.048L610.18 672.255V677.756L131.916 677.758V672.255Z" fill="#D9E2E7"/>
<path d="M130.979 677.325L370.112 677.326L609.244 677.325V682.827L130.979 682.829V677.325Z" fill="white" fill-opacity="0.996078"/>
<path d="M130.979 680.551L370.112 680.553L609.244 680.553V686.055L130.979 686.056V680.551Z" fill="#D9E2E7"/>
<path d="M130.979 685.623L370.112 685.624L609.244 685.624V691.126L130.979 691.127V685.623Z" fill="white" fill-opacity="0.996078"/>
<path d="M132.492 690.694L371.624 690.695L610.756 690.695V696.196L132.492 696.199V690.694Z" fill="#D9E2E7"/>
<path d="M132.024 694.844H371.156L610.288 694.845V700.346L132.024 700.349L132.024 694.844Z" fill="white" fill-opacity="0.996078"/>
<path d="M130.715 699.088L369.847 699.089L608.979 699.088V704.589L130.715 704.591V699.088Z" fill="#D9E2E7"/>
<path d="M135.25 634.389H374.382L613.514 634.391C613.514 636.224 613.514 638.058 613.514 639.892C454.093 639.892 294.672 639.892 135.25 639.892C135.25 638.059 135.25 636.224 135.25 634.389Z" fill="white" fill-opacity="0.996078"/>
<path d="M136.764 639H375.896L615.028 639.001V644.501L136.764 644.503V639Z" fill="#D9E2E7"/>
<path d="M135.827 644.07L374.96 644.071L614.092 644.071V649.572L135.827 649.574V644.07Z" fill="white" fill-opacity="0.996078"/>
<path d="M135.827 647.296L374.96 647.298L614.092 647.298V652.8L135.827 652.801V647.296Z" fill="#D9E2E7"/>
<path d="M135.827 652.368L374.96 652.369L614.092 652.369V657.871L135.827 657.872V652.368Z" fill="white" fill-opacity="0.996078"/>
<path d="M137.34 657.439L376.472 657.44L615.604 657.44V662.941L137.34 662.944V657.439Z" fill="#D9E2E7"/>
<path d="M136.872 661.589H376.004L615.136 661.59V667.091L136.872 667.094L136.872 661.589Z" fill="white" fill-opacity="0.996078"/>
<path d="M135.563 665.833L374.695 665.834L613.827 665.833V671.334L135.563 671.336V665.833Z" fill="#D9E2E7"/>
<path d="M117.434 597.295H356.567L595.698 597.296C595.698 599.13 595.698 600.963 595.698 602.797C436.277 602.797 276.856 602.797 117.434 602.798C117.434 600.964 117.434 599.129 117.434 597.295Z" fill="white" fill-opacity="0.996078"/>
<path d="M118.948 601.905H358.08L597.212 601.906V607.406L118.948 607.409L118.948 601.905Z" fill="#D9E2E7"/>
<path d="M118.012 606.975L357.144 606.976L596.276 606.976V612.477L118.012 612.48V606.975Z" fill="white" fill-opacity="0.996078"/>
<path d="M118.012 610.201L357.144 610.204L596.276 610.204V615.705L118.012 615.706V610.201Z" fill="#D9E2E7"/>
<path d="M118.012 615.273L357.144 615.275L596.276 615.274V620.776L118.012 620.777V615.273Z" fill="white" fill-opacity="0.996078"/>
<path d="M119.524 620.344L358.657 620.345L597.789 620.345V625.847L119.524 625.849V620.344Z" fill="#D9E2E7"/>
<path d="M119.056 624.494H358.188L597.321 624.495V629.996L119.056 629.999V624.494Z" fill="white" fill-opacity="0.996078"/>
<path d="M117.747 628.738L356.88 628.739L596.012 628.739V634.239L117.747 634.242V628.738Z" fill="#D9E2E7"/>
<path d="M325.154 137.162L548.641 137.162L772.128 137.163C772.128 338.695 772.128 540.226 772.128 741.757C623.137 741.758 474.145 741.758 325.154 741.759C325.154 540.227 325.154 338.694 325.154 137.162Z" fill="white"/>
<path d="M353.408 567.505L360.977 567.505L368.544 567.505C368.544 572.052 368.544 576.6 368.544 581.147C363.499 581.147 358.454 581.147 353.408 581.147C353.408 576.6 353.408 572.052 353.408 567.505Z" fill="#848C93"/>
<path d="M353.408 595.682L368.544 595.682L368.544 609.323L353.408 609.324L353.408 595.682Z" fill="#848C93"/>
<path d="M353.408 623.859L360.977 623.861L368.544 623.859C368.544 628.407 368.544 632.954 368.544 637.501C363.499 637.501 358.454 637.501 353.408 637.501C353.408 632.954 353.408 628.407 353.408 623.859Z" fill="#848C93"/>
<path d="M353.408 652.036L368.544 652.037L368.544 665.677L353.408 665.678L353.408 652.036Z" fill="#848C93"/>
<path d="M383.749 565.086L501.05 565.085L618.351 565.086C618.351 571.374 618.351 577.663 618.351 583.953C540.15 583.954 461.95 583.954 383.749 583.954C383.749 577.664 383.749 571.375 383.749 565.086Z" fill="#BBDFFF"/>
<path d="M383.749 593.565L476.242 593.566L568.736 593.566C568.736 599.854 568.736 606.143 568.736 612.433C507.073 612.433 445.411 612.434 383.749 612.434C383.749 606.144 383.749 599.855 383.749 593.565Z" fill="#BBDFFF"/>
<path d="M383.749 622.045L503.338 622.046L622.927 622.046C622.927 628.335 622.927 634.624 622.927 640.913C543.201 640.913 463.475 640.913 383.749 640.913C383.749 634.624 383.749 628.334 383.749 622.045Z" fill="#BBDFFF"/>
<path d="M383.749 650.526L538.138 650.527V669.392L383.749 669.394V650.526Z" fill="#BBDFFF"/>
<path d="M353.408 456.101L360.976 456.102L368.544 456.102C368.544 460.649 368.544 465.196 368.544 469.743C363.499 469.744 358.454 469.744 353.408 469.744C353.408 465.196 353.408 460.649 353.408 456.101Z" fill="#848C93"/>
<path d="M353.408 484.279L368.544 484.279V497.921L353.408 497.921V484.279Z" fill="#848C93"/>
<path d="M353.408 512.456L360.976 512.457L368.544 512.456C368.544 517.004 368.544 521.551 368.544 526.098C363.499 526.098 358.454 526.098 353.408 526.098C353.408 521.551 353.408 517.004 353.408 512.456Z" fill="#848C93"/>
<path d="M353.408 540.633L368.544 540.634L368.544 554.275L353.408 554.275V540.633Z" fill="#848C93"/>
<path d="M381.74 453.682L499.042 453.682L616.343 453.682C616.343 459.972 616.343 466.261 616.343 472.55C538.142 472.55 459.941 472.55 381.74 472.551C381.74 466.261 381.74 459.972 381.74 453.682Z" fill="#BBDFFF"/>
<path d="M381.74 482.162L474.234 482.163L566.727 482.162C566.727 488.451 566.727 494.741 566.727 501.03C505.065 501.03 443.403 501.03 381.74 501.031C381.74 494.741 381.74 488.451 381.74 482.162Z" fill="#BBDFFF"/>
<path d="M381.74 510.642L501.33 510.643L620.919 510.642C620.919 516.931 620.919 523.221 620.919 529.51C541.193 529.51 461.467 529.51 381.74 529.51C381.74 523.221 381.74 516.931 381.74 510.642Z" fill="#BBDFFF"/>
<path d="M381.74 539.122L536.129 539.123V557.99L381.74 557.991L381.74 539.122Z" fill="#BBDFFF"/>
<path d="M357.585 316.932L534.608 316.933L711.63 316.933C711.63 353.751 711.63 390.568 711.63 427.386C593.615 427.386 475.6 427.387 357.585 427.387C357.585 390.569 357.585 353.751 357.585 316.932Z" fill="#D4EBFF" fill-opacity="0.447059"/>
<path d="M475.298 241.067L576.923 241.068L678.548 241.068C678.548 256.963 678.548 272.858 678.548 288.752C610.798 288.752 543.048 288.753 475.298 288.753C475.298 272.858 475.298 256.963 475.298 241.067Z" fill="#D4EBFF" fill-opacity="0.996078"/>
<path d="M678.8 152.095L757.831 152.096V166.88L678.8 166.881V152.095Z" fill="#BFC9D2" fill-opacity="0.784314"/>
<path d="M704.038 171.941L757.831 171.942V186.726L704.038 186.726V171.941Z" fill="#BFC9D2" fill-opacity="0.784314"/>
<path d="M364.61 681.999L544.607 682L724.604 682C724.604 694.773 724.604 707.546 724.604 720.318C604.606 720.319 484.608 720.319 364.61 720.319C364.61 707.546 364.61 694.773 364.61 681.999Z" fill="#BFC9D2" fill-opacity="0.996078"/>
<path d="M647.119 454.169L757.298 454.171L757.298 664.751L647.119 664.753L647.119 454.169Z" fill="#BFC9D2" fill-opacity="0.611765"/>
<path d="M508.223 251.165H512.424C514.856 251.165 516.666 251.625 517.854 252.543C519.071 253.489 519.679 254.853 519.679 256.634C519.679 257.58 519.523 258.408 519.212 259.117C518.901 259.813 518.42 260.439 517.769 260.996C517.062 261.594 516.285 262.025 515.436 262.29C514.682 262.521 513.801 262.657 512.792 262.695C512.603 262.703 512.41 262.706 512.213 262.707L512.212 262.707L508.223 262.707L508.223 251.165ZM539.421 259.333C539.542 259.328 539.664 259.326 539.789 259.326L539.747 259.368C540.652 259.368 541.451 259.514 542.144 259.806C542.837 260.098 543.431 260.509 543.926 261.037C544.307 261.455 544.654 262.102 544.965 262.978C545.234 263.744 545.368 264.537 545.368 265.358H533.404C533.658 263.507 534.33 262.025 535.419 260.912C536.383 259.925 537.717 259.398 539.421 259.333ZM643.557 259.333C643.678 259.328 643.801 259.326 643.925 259.326L643.883 259.368C644.788 259.368 645.587 259.514 646.28 259.806C646.973 260.098 647.567 260.509 648.062 261.037C648.444 261.455 648.79 262.102 649.102 262.978C649.37 263.743 649.505 264.537 649.505 265.357H637.54C637.795 263.507 638.467 262.025 639.556 260.912C640.519 259.925 641.853 259.398 643.557 259.333ZM500.926 247.847V249.725C500.926 250.143 501.138 250.4 501.562 250.498C501.817 250.553 502.658 250.72 504.087 250.999L504.087 275.355L501.562 275.876C501.138 275.974 500.926 276.231 500.926 276.649V278.485L504.044 278.485H508.266L511.384 278.485V276.649C511.384 276.468 511.314 276.301 511.172 276.148C511.045 276.009 510.882 275.918 510.684 275.876C510.458 275.821 509.652 275.647 508.266 275.355L508.266 265.712H511.045C511.653 265.712 512.084 265.796 512.339 265.963C512.636 266.158 512.897 266.401 513.124 266.693L521.206 277.63C521.545 278.228 522.097 278.527 522.861 278.527H524.24H526.594L527.379 278.527V276.649C527.379 276.231 527.16 275.974 526.722 275.876L526.723 275.876H526.764C526.623 275.835 525.809 275.696 524.324 275.459L517.6 266.38C517.218 265.838 516.751 265.413 516.2 265.107C517.246 264.884 518.321 264.474 519.424 263.876C520.357 263.375 521.157 262.728 521.821 261.935C522.486 261.142 522.988 260.286 523.327 259.368C523.681 258.394 523.858 257.399 523.858 256.383C523.858 255.075 523.638 253.893 523.2 252.835C522.776 251.819 522.083 250.922 521.121 250.143C520.174 249.378 518.986 248.807 517.557 248.431C516.058 248.042 514.347 247.847 512.424 247.847H504.044L500.926 247.847ZM539.216 256.56C537.819 256.614 536.568 256.882 535.461 257.364C534.16 257.935 533.071 258.693 532.195 259.639C531.374 260.529 530.695 261.67 530.158 263.062C529.663 264.356 529.416 265.747 529.416 267.236C529.416 269.1 529.677 270.756 530.201 272.203C530.738 273.706 531.459 274.916 532.364 275.835C533.354 276.85 534.471 277.609 535.716 278.11C536.961 278.61 538.368 278.861 539.937 278.861C540.082 278.861 540.23 278.858 540.382 278.852C540.972 278.829 541.616 278.763 542.313 278.652C542.922 278.555 543.706 278.353 544.668 278.047C545.149 277.894 545.856 277.539 546.789 276.982C547.539 276.537 548.119 276.057 548.529 275.542L547.447 274.123C547.277 273.873 547.03 273.748 546.705 273.748C546.697 273.748 546.689 273.748 546.68 273.748C546.471 273.756 546.189 273.867 545.835 274.081C545.467 274.304 545.036 274.534 544.541 274.77C543.82 275.104 543.211 275.348 542.716 275.501C542.189 275.659 541.536 275.753 540.758 275.782C540.576 275.789 540.387 275.793 540.192 275.793C539.245 275.793 538.318 275.619 537.413 275.271C536.579 274.951 535.85 274.443 535.228 273.748C534.549 272.982 534.061 272.154 533.764 271.264C533.411 270.193 533.234 268.996 533.234 267.674L533.235 267.674L547.829 267.674C547.853 267.674 547.876 267.674 547.899 267.673C548.23 267.66 548.468 267.556 548.614 267.361C548.727 267.208 548.783 266.812 548.783 266.171C548.783 264.711 548.557 263.347 548.105 262.081C547.709 260.982 547.065 259.966 546.174 259.034C545.396 258.227 544.442 257.615 543.31 257.197C542.165 256.771 540.965 256.556 539.71 256.55L539.712 256.55C539.723 256.55 539.735 256.55 539.747 256.55H539.699L539.696 256.55C539.534 256.551 539.374 256.554 539.216 256.56ZM559.368 256.562C557.005 256.652 555.153 257.275 553.811 258.428C552.425 259.611 551.732 261.065 551.732 262.79C551.732 264.488 552.34 265.831 553.556 266.818C554.221 267.333 554.872 267.73 555.508 268.008C556.074 268.245 557.424 268.704 559.56 269.386C560.111 269.511 560.72 269.733 561.384 270.053C561.794 270.248 562.226 270.596 562.678 271.097C563.032 271.487 563.209 272.085 563.209 272.892C563.209 273.671 562.827 274.395 562.063 275.062C561.277 275.72 560.254 276.073 558.995 276.121C558.895 276.125 558.793 276.127 558.69 276.127C556.852 276.127 555.36 275.842 554.214 275.271C554.172 274.812 554.122 274.346 554.066 273.873C554.023 273.4 553.988 273.066 553.96 272.871C553.945 272.69 553.938 272.579 553.938 272.537C553.853 272.203 553.641 272.036 553.302 272.036H551.732V277.671C554.066 278.436 556.441 278.819 558.86 278.819C559.011 278.819 559.161 278.816 559.309 278.811C561.43 278.729 563.218 278.064 564.672 276.816C566.101 275.591 566.815 273.942 566.815 271.869C566.815 270.269 566.221 269.01 565.033 268.092C564.326 267.535 563.718 267.166 563.209 266.985L561.108 266.213C560.84 266.116 560.38 265.97 559.73 265.775C559.093 265.594 558.655 265.469 558.414 265.399C557.325 265.065 556.491 264.571 555.911 263.917C555.558 263.57 555.381 263.027 555.381 262.29C555.381 261.58 555.77 260.926 556.548 260.328C557.324 259.732 558.248 259.413 559.319 259.372C559.399 259.369 559.479 259.368 559.56 259.368H559.602C560.437 259.368 561.561 259.528 562.975 259.848C563.018 260.349 563.067 260.842 563.124 261.329C563.166 261.803 563.201 262.136 563.23 262.331C563.244 262.526 563.251 262.637 563.251 262.665C563.336 263.069 563.583 263.27 563.993 263.27H565.669L565.669 259.201V257.719C563.355 256.946 561.458 256.557 559.979 256.55L559.98 256.55C559.981 256.55 559.983 256.55 559.984 256.55H559.98H559.98C559.772 256.55 559.568 256.554 559.368 256.562ZM568.321 256.905V258.7C568.321 259.159 568.547 259.43 569 259.514C569.283 259.611 570.096 259.778 571.439 260.015V270.7C571.439 273.121 572.076 275.104 573.349 276.649C574.65 278.151 576.474 278.903 578.822 278.903C578.951 278.903 579.08 278.9 579.208 278.895C581.846 278.794 584.15 277.648 586.119 275.459L586.437 277.755C586.607 278.297 586.953 278.569 587.477 278.569H592.907V276.732C592.907 276.301 592.688 276.043 592.25 275.96C591.995 275.876 591.168 275.709 589.768 275.459V256.905L585.907 256.905L582.788 256.905V258.742C582.788 259.201 583.001 259.472 583.425 259.555C584.825 259.806 585.652 259.973 585.907 260.056V272.892C584.171 274.799 582.28 275.793 580.232 275.871C580.144 275.875 580.056 275.876 579.967 275.876L579.967 275.835C578.426 275.835 577.266 275.389 576.488 274.499C575.725 273.622 575.343 272.342 575.343 270.659L575.343 256.905H568.321ZM595.517 256.905V258.7C595.517 259.159 595.715 259.43 596.111 259.514C596.337 259.583 597.178 259.75 598.635 260.015V275.459L596.111 275.918C595.715 276.002 595.517 276.273 595.517 276.732V278.527L605.635 278.527L605.635 276.732C605.635 276.273 605.416 276.002 604.978 275.918C604.893 275.918 604.462 275.835 603.684 275.668L602.496 275.459L602.496 262.456C603.927 260.647 605.502 259.709 607.221 259.643C607.286 259.64 607.352 259.639 607.417 259.639C610.189 259.639 611.575 261.35 611.575 264.773L611.575 278.569H618.576V276.732C618.576 276.301 618.356 276.043 617.918 275.96C617.508 275.89 617.112 275.814 616.73 275.73C616.362 275.661 616.072 275.598 615.86 275.542C615.648 275.501 615.514 275.473 615.457 275.459V264.773C615.457 263.131 615.931 261.844 616.878 260.912C617.69 260.114 618.714 259.691 619.951 259.643C620.029 259.64 620.108 259.639 620.188 259.639C621.588 259.639 622.691 260.077 623.497 260.954C624.247 261.775 624.621 263.062 624.621 264.815V278.61L631.622 278.61V276.732C631.622 276.301 631.403 276.043 630.964 275.96C630.738 275.89 629.896 275.723 628.44 275.459V264.773C628.44 262.157 627.803 260.133 626.531 258.7C625.894 257.976 625.109 257.447 624.176 257.114C623.143 256.738 622.019 256.55 620.803 256.55C620.723 256.55 620.644 256.552 620.564 256.555C619.395 256.6 618.195 256.974 616.963 257.677C615.676 258.415 614.722 259.549 614.099 261.079C613.675 259.702 613.011 258.609 612.105 257.802C611.172 256.967 609.956 256.55 608.457 256.55C608.368 256.55 608.28 256.552 608.191 256.555C606.005 256.639 604.022 257.764 602.241 259.931V259.889L601.944 257.677C601.774 257.162 601.428 256.905 600.905 256.905H598.635L595.517 256.905ZM643.352 256.56C641.955 256.614 640.704 256.882 639.598 257.364C638.297 257.934 637.208 258.693 636.331 259.639C635.511 260.529 634.832 261.67 634.295 263.062C633.8 264.356 633.552 265.747 633.552 267.236C633.552 269.1 633.814 270.756 634.337 272.203C634.874 273.706 635.596 274.916 636.501 275.835C637.491 276.85 638.608 277.609 639.853 278.109C641.097 278.61 642.504 278.861 644.074 278.861C644.219 278.861 644.367 278.858 644.519 278.852C645.109 278.829 645.753 278.763 646.45 278.652C647.058 278.555 647.843 278.353 648.805 278.047C649.285 277.894 649.993 277.539 650.926 276.982C651.675 276.537 652.255 276.057 652.666 275.542L651.584 274.123C651.414 273.873 651.166 273.748 650.841 273.748C650.833 273.748 650.825 273.748 650.817 273.748C650.607 273.756 650.325 273.867 649.971 274.081C649.604 274.304 649.172 274.534 648.677 274.77C647.956 275.104 647.348 275.348 646.853 275.501C646.326 275.659 645.673 275.752 644.894 275.782C644.712 275.789 644.524 275.793 644.329 275.793C643.381 275.793 642.455 275.619 641.55 275.271C640.715 274.951 639.987 274.443 639.365 273.748C638.686 272.982 638.198 272.154 637.901 271.264C637.547 270.193 637.371 268.996 637.371 267.674L637.373 267.674L651.965 267.674C651.989 267.674 652.013 267.674 652.036 267.673C652.367 267.66 652.605 267.556 652.75 267.361C652.863 267.208 652.92 266.811 652.92 266.171C652.92 264.71 652.694 263.347 652.241 262.081C651.845 260.982 651.202 259.966 650.311 259.034C649.533 258.227 648.578 257.614 647.447 257.197C646.304 256.772 645.105 256.556 643.852 256.55L643.855 256.55C643.864 256.55 643.874 256.55 643.883 256.55L643.848 256.55L643.846 256.55C643.68 256.551 643.515 256.554 643.352 256.56Z" fill="#828C96"/>
<path d="M344.122 153.106L390.421 153.107L436.719 153.107C436.719 188.695 436.719 224.284 436.719 259.872C405.853 259.872 374.988 259.872 344.122 259.872C344.122 224.284 344.122 188.695 344.122 153.106Z" fill="#D4EBFF" fill-opacity="0.513726"/>
<path d="M390.422 209.349C403.591 209.347 408.33 196.376 409.57 185.719C411.099 172.591 404.789 162.711 390.422 162.711C376.058 162.711 369.746 172.591 371.274 185.719C372.516 196.375 377.253 209.35 390.422 209.349Z" fill="#8795A2"/>
<path d="M426.046 240.24C425.901 236.105 425.409 231.951 424.676 227.88C423.787 222.949 422.656 215.719 418.28 212.506C415.749 210.648 412.472 210.038 409.574 208.918C408.164 208.373 406.901 207.831 405.716 207.215C401.714 211.532 396.496 213.791 390.42 213.791C384.345 213.791 379.128 211.533 375.126 207.215C373.941 207.832 372.677 208.373 371.267 208.918C368.37 210.038 365.093 210.648 362.562 212.506C358.186 215.72 357.055 222.949 356.167 227.88C355.433 231.951 354.94 236.105 354.796 240.24C354.685 243.443 356.293 243.891 359.016 244.859C362.426 246.069 365.947 246.967 369.492 247.703C376.338 249.125 383.394 250.219 390.42 250.268C397.446 250.218 404.503 249.125 411.348 247.703C414.892 246.967 418.414 246.069 421.824 244.859C424.548 243.892 426.156 243.443 426.044 240.24H426.046Z" fill="#8795A2"/>
<path d="M665.585 460.252L702.21 460.252L738.835 460.252C738.835 467.519 738.835 474.786 738.835 482.053C714.418 482.053 690.001 482.054 665.585 482.054C665.585 474.787 665.585 467.519 665.585 460.252Z" fill="#D4EBFF" fill-opacity="0.996078"/>
</svg>
